<?xml version="1.0" encoding="UTF-8" standalone="no"?><svg xmlns="http://www.w3.org/2000/svg" xmlns:xlink="http://www.w3.org/1999/xlink" contentStyleType="text/css" height="579px" preserveAspectRatio="none" style="width:1435px;height:579px;background:#FFFFFF;" version="1.1" viewBox="0 0 1435 579" width="1435px" zoomAndPan="magnify"><defs/><g><!--MD5=[fb98e5736d3b97f43b4f1d4648856d53]
class price_entries--><g id="elem_price_entries"><rect codeLine="27" fill="#FFFFFF" height="123.6563" id="price_entries" rx="2.5" ry="2.5" style="stroke:#00008B;stroke-width:0.5;" width="288.3333" x="1140" y="236.5"/><text fill="#000000" font-family="sans-serif" font-size="14" font-weight="bold" lengthAdjust="spacing" textLength="72" x="1248.1667" y="256.0332">PriceEntry</text><line style="stroke:#00008B;stroke-width:0.5;" x1="1141" x2="1427.3333" y1="264.1094" y2="264.1094"/><path d="M1153.4167,272.8854 C1151.8067,272.8854 1150.5,274.1921 1150.5,275.8021 C1150.5,275.9888 1150.5,276.1754 1150.535,276.3504 L1147,279.8854 L1147,282.2188 L1150.5,282.2188 L1150.5,279.8854 L1152.8333,279.8854 L1152.8333,278.7188 L1152.8683,278.6838 C1153.0433,278.7188 1153.23,278.7188 1153.4167,278.7188 C1155.0267,278.7188 1156.3333,277.4121 1156.3333,275.8021 C1156.3333,274.1921 1155.0267,272.8854 1153.4167,272.8854 M1154,274.0521 C1154.6417,274.0521 1155.1667,274.5771 1155.1667,275.2188 C1155.1667,275.8604 1154.6417,276.3854 1154,276.3854 C1153.3583,276.3854 1152.8333,275.8604 1152.8333,275.2188 C1152.8333,274.5771 1153.3583,274.0521 1154,274.0521 " fill="#B8860B" style="stroke:;stroke-width:0.0;stroke-dasharray:;"/><text fill="#000000" font-family="sans-serif" font-size="14" font-weight="bold" lengthAdjust="spacing" textLength="13" x="1161.3333" y="282.6426">id</text><text fill="#000000" font-family="sans-serif" font-size="14" lengthAdjust="spacing" textLength="68" x="1174.3333" y="282.6426">: INTEGER</text><path d="M1150.5,290.4948 C1148.5633,290.4948 1147,292.0581 1147,293.9948 C1147,295.9315 1148.5633,297.4948 1150.5,297.4948 C1152.4367,297.4948 1154,295.9315 1154,293.9948 C1154,292.0581 1152.4367,290.4948 1150.5,290.4948 " fill="#EFEFEF" style="stroke:;stroke-width:0.0;stroke-dasharray:;"/><text fill="#000000" font-family="sans-serif" font-size="14" lengthAdjust="spacing" textLength="261" x="1161.3333" y="300.252">at: TIMESTAMP WITHOUT TIME ZONE(6)</text><path d="M1150.5,308.1042 C1148.5633,308.1042 1147,309.6675 1147,311.6042 C1147,313.5408 1148.5633,315.1042 1150.5,315.1042 C1152.4367,315.1042 1154,313.5408 1154,311.6042 C1154,309.6675 1152.4367,308.1042 1150.5,308.1042 " fill="#EFEFEF" style="stroke:;stroke-width:0.0;stroke-dasharray:;"/><text fill="#000000" font-family="sans-serif" font-size="14" lengthAdjust="spacing" textLength="117" x="1161.3333" y="317.8613">use_value: BIGINT</text><path d="M1150.5,325.7135 C1148.5633,325.7135 1147,327.2769 1147,329.2135 C1147,331.1502 1148.5633,332.7135 1150.5,332.7135 C1152.4367,332.7135 1154,331.1502 1154,329.2135 C1154,327.2769 1152.4367,325.7135 1150.5,325.7135 " fill="#EFEFEF" style="stroke:;stroke-width:0.0;stroke-dasharray:;"/><text fill="#000000" font-family="sans-serif" font-size="14" lengthAdjust="spacing" textLength="217" x="1161.3333" y="335.4707">value: CHARACTER VARYING(30)</text><path d="M1153.4167,343.3229 C1151.8067,343.3229 1150.5,344.6296 1150.5,346.2396 C1150.5,346.4263 1150.5,346.6129 1150.535,346.7879 L1147,350.3229 L1147,352.6563 L1150.5,352.6563 L1150.5,350.3229 L1152.8333,350.3229 L1152.8333,349.1563 L1152.8683,349.1213 C1153.0433,349.1563 1153.23,349.1563 1153.4167,349.1563 C1155.0267,349.1563 1156.3333,347.8496 1156.3333,346.2396 C1156.3333,344.6296 1155.0267,343.3229 1153.4167,343.3229 M1154,344.4896 C1154.6417,344.4896 1155.1667,345.0146 1155.1667,345.6563 C1155.1667,346.2979 1154.6417,346.8229 1154,346.8229 C1153.3583,346.8229 1152.8333,346.2979 1152.8333,345.6563 C1152.8333,345.0146 1153.3583,344.4896 1154,344.4896 " fill="#AAAAAA" style="stroke:;stroke-width:0.0;stroke-dasharray:;"/><text fill="#000000" font-family="sans-serif" font-size="14" lengthAdjust="spacing" textLength="204" x="1161.3333" y="353.0801">priceSourceIdId: INTEGER «FK»</text></g><!--MD5=[aab99ada5c853100001031c4c7d4ec72]
class price_source--><g id="elem_price_source"><rect codeLine="35" fill="#FFFFFF" height="194.0938" id="price_source" rx="2.5" ry="2.5" style="stroke:#00008B;stroke-width:0.5;" width="261.3333" x="779.5" y="201.5"/><text fill="#000000" font-family="sans-serif" font-size="14" font-weight="bold" lengthAdjust="spacing" textLength="86" x="867.1667" y="221.0332">PriceSource</text><line style="stroke:#00008B;stroke-width:0.5;" x1="780.5" x2="1039.8333" y1="229.1094" y2="229.1094"/><path d="M792.9167,237.8854 C791.3067,237.8854 790,239.1921 790,240.8021 C790,240.9887 790,241.1754 790.035,241.3504 L786.5,244.8854 L786.5,247.2188 L790,247.2188 L790,244.8854 L792.3333,244.8854 L792.3333,243.7188 L792.3683,243.6838 C792.5433,243.7188 792.73,243.7188 792.9167,243.7188 C794.5267,243.7188 795.8333,242.4121 795.8333,240.8021 C795.8333,239.1921 794.5267,237.8854 792.9167,237.8854 M793.5,239.0521 C794.1417,239.0521 794.6667,239.5771 794.6667,240.2188 C794.6667,240.8604 794.1417,241.3854 793.5,241.3854 C792.8583,241.3854 792.3333,240.8604 792.3333,240.2188 C792.3333,239.5771 792.8583,239.0521 793.5,239.0521 " fill="#B8860B" style="stroke:;stroke-width:0.0;stroke-dasharray:;"/><text fill="#000000" font-family="sans-serif" font-size="14" font-weight="bold" lengthAdjust="spacing" textLength="13" x="800.8333" y="247.6426">id</text><text fill="#000000" font-family="sans-serif" font-size="14" lengthAdjust="spacing" textLength="68" x="813.8333" y="247.6426">: INTEGER</text><path d="M790,255.4948 C788.0633,255.4948 786.5,257.0581 786.5,258.9948 C786.5,260.9315 788.0633,262.4948 790,262.4948 C791.9367,262.4948 793.5,260.9315 793.5,258.9948 C793.5,257.0581 791.9367,255.4948 790,255.4948 " fill="#EFEFEF" style="stroke:;stroke-width:0.0;stroke-dasharray:;"/><text fill="#000000" font-family="sans-serif" font-size="14" lengthAdjust="spacing" textLength="234" x="800.8333" y="265.252">address: CHARACTER VARYING(42)</text><path d="M790,273.1042 C788.0633,273.1042 786.5,274.6675 786.5,276.6042 C786.5,278.5408 788.0633,280.1042 790,280.1042 C791.9367,280.1042 793.5,278.5408 793.5,276.6042 C793.5,274.6675 791.9367,273.1042 790,273.1042 " fill="#EFEFEF" style="stroke:;stroke-width:0.0;stroke-dasharray:;"/><text fill="#000000" font-family="sans-serif" font-size="14" lengthAdjust="spacing" textLength="113" x="800.8333" y="282.8613">chainId: INTEGER</text><path d="M790,290.7135 C788.0633,290.7135 786.5,292.2769 786.5,294.2135 C786.5,296.1502 788.0633,297.7135 790,297.7135 C791.9367,297.7135 793.5,296.1502 793.5,294.2135 C793.5,292.2769 791.9367,290.7135 790,290.7135 " fill="#EFEFEF" style="stroke:;stroke-width:0.0;stroke-dasharray:;"/><text fill="#000000" font-family="sans-serif" font-size="14" lengthAdjust="spacing" textLength="158" x="800.8333" y="300.4707">denominatorId: INTEGER</text><path d="M790,308.3229 C788.0633,308.3229 786.5,309.8863 786.5,311.8229 C786.5,313.7596 788.0633,315.3229 790,315.3229 C791.9367,315.3229 793.5,313.7596 793.5,311.8229 C793.5,309.8863 791.9367,308.3229 790,308.3229 " fill="#EFEFEF" style="stroke:;stroke-width:0.0;stroke-dasharray:;"/><text fill="#000000" font-family="sans-serif" font-size="14" lengthAdjust="spacing" textLength="111" x="800.8333" y="318.0801">priority: INTEGER</text><path d="M790,325.9323 C788.0633,325.9323 786.5,327.4956 786.5,329.4323 C786.5,331.369 788.0633,332.9323 790,332.9323 C791.9367,332.9323 793.5,331.369 793.5,329.4323 C793.5,327.4956 791.9367,325.9323 790,325.9323 " fill="#EFEFEF" style="stroke:;stroke-width:0.0;stroke-dasharray:;"/><text fill="#000000" font-family="sans-serif" font-size="14" lengthAdjust="spacing" textLength="125" x="800.8333" y="335.6895">enabled: BOOLEAN</text><path d="M790,343.5417 C788.0633,343.5417 786.5,345.105 786.5,347.0417 C786.5,348.9783 788.0633,350.5417 790,350.5417 C791.9367,350.5417 793.5,348.9783 793.5,347.0417 C793.5,345.105 791.9367,343.5417 790,343.5417 " fill="#EFEFEF" style="stroke:;stroke-width:0.0;stroke-dasharray:;"/><text fill="#000000" font-family="sans-serif" font-size="14" lengthAdjust="spacing" textLength="187" x="800.8333" y="353.2988">label: CHARACTER VARYING</text><path d="M790,361.151 C788.0633,361.151 786.5,362.7144 786.5,364.651 C786.5,366.5877 788.0633,368.151 790,368.151 C791.9367,368.151 793.5,366.5877 793.5,364.651 C793.5,362.7144 791.9367,361.151 790,361.151 " fill="#EFEFEF" style="stroke:;stroke-width:0.0;stroke-dasharray:;"/><text fill="#000000" font-family="sans-serif" font-size="14" lengthAdjust="spacing" textLength="184" x="800.8333" y="370.9082">type: CHARACTER VARYING</text><path d="M792.9167,378.7604 C791.3067,378.7604 790,380.0671 790,381.6771 C790,381.8638 790,382.0504 790.035,382.2254 L786.5,385.7604 L786.5,388.0937 L790,388.0937 L790,385.7604 L792.3333,385.7604 L792.3333,384.5937 L792.3683,384.5588 C792.5433,384.5937 792.73,384.5937 792.9167,384.5937 C794.5267,384.5937 795.8333,383.2871 795.8333,381.6771 C795.8333,380.0671 794.5267,378.7604 792.9167,378.7604 M793.5,379.9271 C794.1417,379.9271 794.6667,380.4521 794.6667,381.0937 C794.6667,381.7354 794.1417,382.2604 793.5,382.2604 C792.8583,382.2604 792.3333,381.7354 792.3333,381.0937 C792.3333,380.4521 792.8583,379.9271 793.5,379.9271 " fill="#AAAAAA" style="stroke:;stroke-width:0.0;stroke-dasharray:;"/><text fill="#000000" font-family="sans-serif" font-size="14" lengthAdjust="spacing" textLength="151" x="800.8333" y="388.5176">assetId: INTEGER «FK»</text></g><!--MD5=[3819b3a479d3547b057f098c2878e6b4]
class asset--><g id="elem_asset"><rect codeLine="47" fill="#FFFFFF" height="141.2656" id="asset" rx="2.5" ry="2.5" style="stroke:#00008B;stroke-width:0.5;" width="261.3333" x="413" y="228"/><text fill="#000000" font-family="sans-serif" font-size="14" font-weight="bold" lengthAdjust="spacing" textLength="39" x="524.1667" y="247.5332">Asset</text><line style="stroke:#00008B;stroke-width:0.5;" x1="414" x2="673.3333" y1="255.6094" y2="255.6094"/><path d="M426.4167,264.3854 C424.8067,264.3854 423.5,265.6921 423.5,267.3021 C423.5,267.4888 423.5,267.6754 423.535,267.8504 L420,271.3854 L420,273.7188 L423.5,273.7188 L423.5,271.3854 L425.8333,271.3854 L425.8333,270.2188 L425.8683,270.1838 C426.0433,270.2188 426.23,270.2188 426.4167,270.2188 C428.0267,270.2188 429.3333,268.9121 429.3333,267.3021 C429.3333,265.6921 428.0267,264.3854 426.4167,264.3854 M427,265.5521 C427.6417,265.5521 428.1667,266.0771 428.1667,266.7188 C428.1667,267.3604 427.6417,267.8854 427,267.8854 C426.3583,267.8854 425.8333,267.3604 425.8333,266.7188 C425.8333,266.0771 426.3583,265.5521 427,265.5521 " fill="#B8860B" style="stroke:;stroke-width:0.0;stroke-dasharray:;"/><text fill="#000000" font-family="sans-serif" font-size="14" font-weight="bold" lengthAdjust="spacing" textLength="13" x="434.3333" y="274.1426">id</text><text fill="#000000" font-family="sans-serif" font-size="14" lengthAdjust="spacing" textLength="68" x="447.3333" y="274.1426">: INTEGER</text><path d="M423.5,281.9948 C421.5633,281.9948 420,283.5581 420,285.4948 C420,287.4315 421.5633,288.9948 423.5,288.9948 C425.4367,288.9948 427,287.4315 427,285.4948 C427,283.5581 425.4367,281.9948 423.5,281.9948 " fill="#EFEFEF" style="stroke:;stroke-width:0.0;stroke-dasharray:;"/><text fill="#000000" font-family="sans-serif" font-size="14" lengthAdjust="spacing" textLength="234" x="434.3333" y="291.752">address: CHARACTER VARYING(42)</text><path d="M423.5,299.6042 C421.5633,299.6042 420,301.1675 420,303.1042 C420,305.0408 421.5633,306.6042 423.5,306.6042 C425.4367,306.6042 427,305.0408 427,303.1042 C427,301.1675 425.4367,299.6042 423.5,299.6042 " fill="#EFEFEF" style="stroke:;stroke-width:0.0;stroke-dasharray:;"/><text fill="#000000" font-family="sans-serif" font-size="14" lengthAdjust="spacing" textLength="113" x="434.3333" y="309.3613">chainId: INTEGER</text><path d="M423.5,317.2135 C421.5633,317.2135 420,318.7769 420,320.7135 C420,322.6502 421.5633,324.2135 423.5,324.2135 C425.4367,324.2135 427,322.6502 427,320.7135 C427,318.7769 425.4367,317.2135 423.5,317.2135 " fill="#EFEFEF" style="stroke:;stroke-width:0.0;stroke-dasharray:;"/><text fill="#000000" font-family="sans-serif" font-size="14" lengthAdjust="spacing" textLength="129" x="434.3333" y="326.9707">decimals: SMALLINT</text><path d="M423.5,334.8229 C421.5633,334.8229 420,336.3863 420,338.3229 C420,340.2596 421.5633,341.8229 423.5,341.8229 C425.4367,341.8229 427,340.2596 427,338.3229 C427,336.3863 425.4367,334.8229 423.5,334.8229 " fill="#EFEFEF" style="stroke:;stroke-width:0.0;stroke-dasharray:;"/><text fill="#000000" font-family="sans-serif" font-size="14" lengthAdjust="spacing" textLength="201" x="434.3333" y="344.5801">symbol: CHARACTER VARYING</text><path d="M423.5,352.4323 C421.5633,352.4323 420,353.9956 420,355.9323 C420,357.869 421.5633,359.4323 423.5,359.4323 C425.4367,359.4323 427,357.869 427,355.9323 C427,353.9956 425.4367,352.4323 423.5,352.4323 " fill="#EFEFEF" style="stroke:;stroke-width:0.0;stroke-dasharray:;"/><text fill="#000000" font-family="sans-serif" font-size="14" lengthAdjust="spacing" textLength="192" x="434.3333" y="362.1895">name: CHARACTER VARYING</text></g><!--MD5=[550eb70bd8396aa7cdf419ceb071944b]
class slippage_entry--><g id="elem_slippage_entry"><rect codeLine="56" fill="#FFFFFF" height="141.2656" id="slippage_entry" rx="2.5" ry="2.5" style="stroke:#00008B;stroke-width:0.5;" width="340.3333" x="740" y="431"/><text fill="#000000" font-family="sans-serif" font-size="14" font-weight="bold" lengthAdjust="spacing" textLength="97" x="861.6667" y="450.5332">SlippageEntry</text><line style="stroke:#00008B;stroke-width:0.5;" x1="741" x2="1079.3333" y1="458.6094" y2="458.6094"/><path d="M753.4167,467.3854 C751.8067,467.3854 750.5,468.6921 750.5,470.3021 C750.5,470.4888 750.5,470.6754 750.535,470.8504 L747,474.3854 L747,476.7188 L750.5,476.7188 L750.5,474.3854 L752.8333,474.3854 L752.8333,473.2188 L752.8683,473.1838 C753.0433,473.2188 753.23,473.2188 753.4167,473.2188 C755.0267,473.2188 756.3333,471.9121 756.3333,470.3021 C756.3333,468.6921 755.0267,467.3854 753.4167,467.3854 M754,468.5521 C754.6417,468.5521 755.1667,469.0771 755.1667,469.7188 C755.1667,470.3604 754.6417,470.8854 754,470.8854 C753.3583,470.8854 752.8333,470.3604 752.8333,469.7188 C752.8333,469.0771 753.3583,468.5521 754,468.5521 " fill="#B8860B" style="stroke:;stroke-width:0.0;stroke-dasharray:;"/><text fill="#000000" font-family="sans-serif" font-size="14" font-weight="bold" lengthAdjust="spacing" textLength="13" x="761.3333" y="477.1426">id</text><text fill="#000000" font-family="sans-serif" font-size="14" lengthAdjust="spacing" textLength="68" x="774.3333" y="477.1426">: INTEGER</text><path d="M750.5,484.9948 C748.5633,484.9948 747,486.5581 747,488.4948 C747,490.4315 748.5633,491.9948 750.5,491.9948 C752.4367,491.9948 754,490.4315 754,488.4948 C754,486.5581 752.4367,484.9948 750.5,484.9948 " fill="#EFEFEF" style="stroke:;stroke-width:0.0;stroke-dasharray:;"/><text fill="#000000" font-family="sans-serif" font-size="14" lengthAdjust="spacing" textLength="313" x="761.3333" y="494.752">timestamp: TIMESTAMP WITHOUT TIME ZONE(6)</text><path d="M753.4167,502.6042 C751.8067,502.6042 750.5,503.9108 750.5,505.5208 C750.5,505.7075 750.5,505.8942 750.535,506.0692 L747,509.6042 L747,511.9375 L750.5,511.9375 L750.5,509.6042 L752.8333,509.6042 L752.8333,508.4375 L752.8683,508.4025 C753.0433,508.4375 753.23,508.4375 753.4167,508.4375 C755.0267,508.4375 756.3333,507.1308 756.3333,505.5208 C756.3333,503.9108 755.0267,502.6042 753.4167,502.6042 M754,503.7708 C754.6417,503.7708 755.1667,504.2958 755.1667,504.9375 C755.1667,505.5792 754.6417,506.1042 754,506.1042 C753.3583,506.1042 752.8333,505.5792 752.8333,504.9375 C752.8333,504.2958 753.3583,503.7708 754,503.7708 " fill="#AAAAAA" style="stroke:;stroke-width:0.0;stroke-dasharray:;"/><text fill="#000000" font-family="sans-serif" font-size="14" lengthAdjust="spacing" textLength="180" x="761.3333" y="512.3613">fromAssetId: INTEGER «FK»</text><path d="M753.4167,520.2135 C751.8067,520.2135 750.5,521.5202 750.5,523.1302 C750.5,523.3169 750.5,523.5035 750.535,523.6785 L747,527.2135 L747,529.5469 L750.5,529.5469 L750.5,527.2135 L752.8333,527.2135 L752.8333,526.0469 L752.8683,526.0119 C753.0433,526.0469 753.23,526.0469 753.4167,526.0469 C755.0267,526.0469 756.3333,524.7402 756.3333,523.1302 C756.3333,521.5202 755.0267,520.2135 753.4167,520.2135 M754,521.3802 C754.6417,521.3802 755.1667,521.9052 755.1667,522.5469 C755.1667,523.1885 754.6417,523.7135 754,523.7135 C753.3583,523.7135 752.8333,523.1885 752.8333,522.5469 C752.8333,521.9052 753.3583,521.3802 754,521.3802 " fill="#AAAAAA" style="stroke:;stroke-width:0.0;stroke-dasharray:;"/><text fill="#000000" font-family="sans-serif" font-size="14" lengthAdjust="spacing" textLength="164" x="761.3333" y="529.9707">toAssetId: INTEGER «FK»</text><path d="M750.5,537.8229 C748.5633,537.8229 747,539.3863 747,541.3229 C747,543.2596 748.5633,544.8229 750.5,544.8229 C752.4367,544.8229 754,543.2596 754,541.3229 C754,539.3863 752.4367,537.8229 750.5,537.8229 " fill="#EFEFEF" style="stroke:;stroke-width:0.0;stroke-dasharray:;"/><text fill="#000000" font-family="sans-serif" font-size="14" lengthAdjust="spacing" textLength="170" x="761.3333" y="547.5801">tradeSize: NUMERIC(18, 6)</text><path d="M750.5,555.4323 C748.5633,555.4323 747,556.9956 747,558.9323 C747,560.869 748.5633,562.4323 750.5,562.4323 C752.4367,562.4323 754,560.869 754,558.9323 C754,556.9956 752.4367,555.4323 750.5,555.4323 " fill="#EFEFEF" style="stroke:;stroke-width:0.0;stroke-dasharray:;"/><text fill="#000000" font-family="sans-serif" font-size="14" lengthAdjust="spacing" textLength="164" x="761.3333" y="565.1895">slippage: NUMERIC(18, 6)</text></g><!--MD5=[cd869b34d688661372d713ff53dbac1f]
class account--><g id="elem_account"><rect codeLine="65" fill="#FFFFFF" height="141.2656" id="account" rx="2.5" ry="2.5" style="stroke:#00008B;stroke-width:0.5;" width="273.3333" x="407" y="16"/><text fill="#000000" font-family="sans-serif" font-size="14" font-weight="bold" lengthAdjust="spacing" textLength="57" x="515.1667" y="35.5332">Account</text><line style="stroke:#00008B;stroke-width:0.5;" x1="408" x2="679.3333" y1="43.6094" y2="43.6094"/><path d="M420.4167,52.3854 C418.8067,52.3854 417.5,53.6921 417.5,55.3021 C417.5,55.4887 417.5,55.6754 417.535,55.8504 L414,59.3854 L414,61.7188 L417.5,61.7188 L417.5,59.3854 L419.8333,59.3854 L419.8333,58.2188 L419.8683,58.1837 C420.0433,58.2188 420.23,58.2188 420.4167,58.2188 C422.0267,58.2188 423.3333,56.9121 423.3333,55.3021 C423.3333,53.6921 422.0267,52.3854 420.4167,52.3854 M421,53.5521 C421.6417,53.5521 422.1667,54.0771 422.1667,54.7188 C422.1667,55.3604 421.6417,55.8854 421,55.8854 C420.3583,55.8854 419.8333,55.3604 419.8333,54.7188 C419.8333,54.0771 420.3583,53.5521 421,53.5521 " fill="#B8860B" style="stroke:;stroke-width:0.0;stroke-dasharray:;"/><text fill="#000000" font-family="sans-serif" font-size="14" font-weight="bold" lengthAdjust="spacing" textLength="13" x="428.3333" y="62.1426">id</text><text fill="#000000" font-family="sans-serif" font-size="14" lengthAdjust="spacing" textLength="68" x="441.3333" y="62.1426">: INTEGER</text><path d="M417.5,69.9948 C415.5633,69.9948 414,71.5581 414,73.4948 C414,75.4315 415.5633,76.9948 417.5,76.9948 C419.4367,76.9948 421,75.4315 421,73.4948 C421,71.5581 419.4367,69.9948 417.5,69.9948 " fill="#EFEFEF" style="stroke:;stroke-width:0.0;stroke-dasharray:;"/><text fill="#000000" font-family="sans-serif" font-size="14" lengthAdjust="spacing" textLength="95" x="428.3333" y="79.752">nftId: INTEGER</text><path d="M417.5,87.6042 C415.5633,87.6042 414,89.1675 414,91.1042 C414,93.0408 415.5633,94.6042 417.5,94.6042 C419.4367,94.6042 421,93.0408 421,91.1042 C421,89.1675 419.4367,87.6042 417.5,87.6042 " fill="#EFEFEF" style="stroke:;stroke-width:0.0;stroke-dasharray:;"/><text fill="#000000" font-family="sans-serif" font-size="14" lengthAdjust="spacing" textLength="221" x="428.3333" y="97.3613">owner: CHARACTER VARYING(42)</text><path d="M417.5,105.2135 C415.5633,105.2135 414,106.7769 414,108.7135 C414,110.6502 415.5633,112.2135 417.5,112.2135 C419.4367,112.2135 421,110.6502 421,108.7135 C421,106.7769 419.4367,105.2135 417.5,105.2135 " fill="#EFEFEF" style="stroke:;stroke-width:0.0;stroke-dasharray:;"/><text fill="#000000" font-family="sans-serif" font-size="14" lengthAdjust="spacing" textLength="246" x="428.3333" y="114.9707">collateralAmount: DOUBLE PRECISION</text><path d="M417.5,122.8229 C415.5633,122.8229 414,124.3863 414,126.3229 C414,128.2596 415.5633,129.8229 417.5,129.8229 C419.4367,129.8229 421,128.2596 421,126.3229 C421,124.3863 419.4367,122.8229 417.5,122.8229 " fill="#EFEFEF" style="stroke:;stroke-width:0.0;stroke-dasharray:;"/><text fill="#000000" font-family="sans-serif" font-size="14" lengthAdjust="spacing" textLength="217" x="428.3333" y="132.5801">debtAmount: DOUBLE PRECISION</text><path d="M417.5,140.4323 C415.5633,140.4323 414,141.9956 414,143.9323 C414,145.869 415.5633,147.4323 417.5,147.4323 C419.4367,147.4323 421,145.869 421,143.9323 C421,141.9956 419.4367,140.4323 417.5,140.4323 " fill="#EFEFEF" style="stroke:;stroke-width:0.0;stroke-dasharray:;"/><text fill="#000000" font-family="sans-serif" font-size="14" lengthAdjust="spacing" textLength="122" x="428.3333" y="150.1895">marketId: INTEGER</text></g><!--MD5=[0e837cd6b85c94933d02bc7ad7765b17]
class market--><g id="elem_market"><rect codeLine="74" fill="#FFFFFF" height="158.875" id="market" rx="2.5" ry="2.5" style="stroke:#00008B;stroke-width:0.5;" width="261.3333" x="779.5" y="7"/><text fill="#000000" font-family="sans-serif" font-size="14" font-weight="bold" lengthAdjust="spacing" textLength="49" x="885.6667" y="26.5332">Market</text><line style="stroke:#00008B;stroke-width:0.5;" x1="780.5" x2="1039.8333" y1="34.6094" y2="34.6094"/><path d="M792.9167,43.3854 C791.3067,43.3854 790,44.6921 790,46.3021 C790,46.4887 790,46.6754 790.035,46.8504 L786.5,50.3854 L786.5,52.7188 L790,52.7188 L790,50.3854 L792.3333,50.3854 L792.3333,49.2188 L792.3683,49.1837 C792.5433,49.2188 792.73,49.2188 792.9167,49.2188 C794.5267,49.2188 795.8333,47.9121 795.8333,46.3021 C795.8333,44.6921 794.5267,43.3854 792.9167,43.3854 M793.5,44.5521 C794.1417,44.5521 794.6667,45.0771 794.6667,45.7188 C794.6667,46.3604 794.1417,46.8854 793.5,46.8854 C792.8583,46.8854 792.3333,46.3604 792.3333,45.7188 C792.3333,45.0771 792.8583,44.5521 793.5,44.5521 " fill="#B8860B" style="stroke:;stroke-width:0.0;stroke-dasharray:;"/><text fill="#000000" font-family="sans-serif" font-size="14" font-weight="bold" lengthAdjust="spacing" textLength="13" x="800.8333" y="53.1426">id</text><text fill="#000000" font-family="sans-serif" font-size="14" lengthAdjust="spacing" textLength="68" x="813.8333" y="53.1426">: INTEGER</text><path d="M790,60.9948 C788.0633,60.9948 786.5,62.5581 786.5,64.4948 C786.5,66.4315 788.0633,67.9948 790,67.9948 C791.9367,67.9948 793.5,66.4315 793.5,64.4948 C793.5,62.5581 791.9367,60.9948 790,60.9948 " fill="#EFEFEF" style="stroke:;stroke-width:0.0;stroke-dasharray:;"/><text fill="#000000" font-family="sans-serif" font-size="14" lengthAdjust="spacing" textLength="234" x="800.8333" y="70.752">address: CHARACTER VARYING(42)</text><path d="M790,78.6042 C788.0633,78.6042 786.5,80.1675 786.5,82.1042 C786.5,84.0408 788.0633,85.6042 790,85.6042 C791.9367,85.6042 793.5,84.0408 793.5,82.1042 C793.5,80.1675 791.9367,78.6042 790,78.6042 " fill="#EFEFEF" style="stroke:;stroke-width:0.0;stroke-dasharray:;"/><text fill="#000000" font-family="sans-serif" font-size="14" lengthAdjust="spacing" textLength="113" x="800.8333" y="88.3613">chainId: INTEGER</text><path d="M790,96.2135 C788.0633,96.2135 786.5,97.7769 786.5,99.7135 C786.5,101.6502 788.0633,103.2135 790,103.2135 C791.9367,103.2135 793.5,101.6502 793.5,99.7135 C793.5,97.7769 791.9367,96.2135 790,96.2135 " fill="#EFEFEF" style="stroke:;stroke-width:0.0;stroke-dasharray:;"/><text fill="#000000" font-family="sans-serif" font-size="14" lengthAdjust="spacing" textLength="196" x="800.8333" y="105.9707">liquidationThreshold: INTEGER</text><path d="M792.9167,113.8229 C791.3067,113.8229 790,115.1296 790,116.7396 C790,116.9263 790,117.1129 790.035,117.2879 L786.5,120.8229 L786.5,123.1563 L790,123.1563 L790,120.8229 L792.3333,120.8229 L792.3333,119.6563 L792.3683,119.6213 C792.5433,119.6563 792.73,119.6563 792.9167,119.6563 C794.5267,119.6563 795.8333,118.3496 795.8333,116.7396 C795.8333,115.1296 794.5267,113.8229 792.9167,113.8229 M793.5,114.9896 C794.1417,114.9896 794.6667,115.5146 794.6667,116.1563 C794.6667,116.7979 794.1417,117.3229 793.5,117.3229 C792.8583,117.3229 792.3333,116.7979 792.3333,116.1563 C792.3333,115.5146 792.8583,114.9896 793.5,114.9896 " fill="#AAAAAA" style="stroke:;stroke-width:0.0;stroke-dasharray:;"/><text fill="#000000" font-family="sans-serif" font-size="14" lengthAdjust="spacing" textLength="209" x="800.8333" y="123.5801">collateralAssetId: INTEGER «FK»</text><path d="M792.9167,131.4323 C791.3067,131.4323 790,132.739 790,134.349 C790,134.5356 790,134.7223 790.035,134.8973 L786.5,138.4323 L786.5,140.7656 L790,140.7656 L790,138.4323 L792.3333,138.4323 L792.3333,137.2656 L792.3683,137.2306 C792.5433,137.2656 792.73,137.2656 792.9167,137.2656 C794.5267,137.2656 795.8333,135.959 795.8333,134.349 C795.8333,132.739 794.5267,131.4323 792.9167,131.4323 M793.5,132.599 C794.1417,132.599 794.6667,133.124 794.6667,133.7656 C794.6667,134.4073 794.1417,134.9323 793.5,134.9323 C792.8583,134.9323 792.3333,134.4073 792.3333,133.7656 C792.3333,133.124 792.8583,132.599 793.5,132.599 " fill="#AAAAAA" style="stroke:;stroke-width:0.0;stroke-dasharray:;"/><text fill="#000000" font-family="sans-serif" font-size="14" lengthAdjust="spacing" textLength="180" x="800.8333" y="141.1895">debtAssetId: INTEGER «FK»</text><path d="M792.9167,149.0417 C791.3067,149.0417 790,150.3483 790,151.9583 C790,152.145 790,152.3317 790.035,152.5067 L786.5,156.0417 L786.5,158.375 L790,158.375 L790,156.0417 L792.3333,156.0417 L792.3333,154.875 L792.3683,154.84 C792.5433,154.875 792.73,154.875 792.9167,154.875 C794.5267,154.875 795.8333,153.5683 795.8333,151.9583 C795.8333,150.3483 794.5267,149.0417 792.9167,149.0417 M793.5,150.2083 C794.1417,150.2083 794.6667,150.7333 794.6667,151.375 C794.6667,152.0167 794.1417,152.5417 793.5,152.5417 C792.8583,152.5417 792.3333,152.0167 792.3333,151.375 C792.3333,150.7333 792.8583,150.2083 793.5,150.2083 " fill="#AAAAAA" style="stroke:;stroke-width:0.0;stroke-dasharray:;"/><text fill="#000000" font-family="sans-serif" font-size="14" lengthAdjust="spacing" textLength="155" x="800.8333" y="158.7988">ownerId: INTEGER «FK»</text></g><!--MD5=[ffec8c8d11892075691b5ae542ce4362]
class market_cap_entry--><g id="elem_market_cap_entry"><rect codeLine="84" fill="#FFFFFF" height="106.0469" id="market_cap_entry" rx="2.5" ry="2.5" style="stroke:#2E8B57;stroke-width:0.5;" width="340.3333" x="7" y="170.5"/><text fill="#000000" font-family="sans-serif" font-size="14" font-weight="bold" lengthAdjust="spacing" textLength="112" x="121.1667" y="190.0332">MarketCapEntry</text><line style="stroke:#2E8B57;stroke-width:0.5;" x1="8" x2="346.3333" y1="198.1094" y2="198.1094"/><path d="M20.4167,206.8854 C18.8067,206.8854 17.5,208.1921 17.5,209.8021 C17.5,209.9887 17.5,210.1754 17.535,210.3504 L14,213.8854 L14,216.2188 L17.5,216.2188 L17.5,213.8854 L19.8333,213.8854 L19.8333,212.7188 L19.8683,212.6838 C20.0433,212.7188 20.23,212.7188 20.4167,212.7188 C22.0267,212.7188 23.3333,211.4121 23.3333,209.8021 C23.3333,208.1921 22.0267,206.8854 20.4167,206.8854 M21,208.0521 C21.6417,208.0521 22.1667,208.5771 22.1667,209.2188 C22.1667,209.8604 21.6417,210.3854 21,210.3854 C20.3583,210.3854 19.8333,209.8604 19.8333,209.2188 C19.8333,208.5771 20.3583,208.0521 21,208.0521 " fill="#B8860B" style="stroke:;stroke-width:0.0;stroke-dasharray:;"/><text fill="#000000" font-family="sans-serif" font-size="14" font-weight="bold" lengthAdjust="spacing" textLength="13" x="28.3333" y="216.6426">id</text><text fill="#000000" font-family="sans-serif" font-size="14" lengthAdjust="spacing" textLength="68" x="41.3333" y="216.6426">: INTEGER</text><path d="M17.5,224.4948 C15.5633,224.4948 14,226.0581 14,227.9948 C14,229.9315 15.5633,231.4948 17.5,231.4948 C19.4367,231.4948 21,229.9315 21,227.9948 C21,226.0581 19.4367,224.4948 17.5,224.4948 " fill="#EFEFEF" style="stroke:;stroke-width:0.0;stroke-dasharray:;"/><text fill="#000000" font-family="sans-serif" font-size="14" lengthAdjust="spacing" textLength="104" x="28.3333" y="234.252">marketCap: float</text><path d="M17.5,242.1042 C15.5633,242.1042 14,243.6675 14,245.6042 C14,247.5408 15.5633,249.1042 17.5,249.1042 C19.4367,249.1042 21,247.5408 21,245.6042 C21,243.6675 19.4367,242.1042 17.5,242.1042 " fill="#EFEFEF" style="stroke:;stroke-width:0.0;stroke-dasharray:;"/><text fill="#000000" font-family="sans-serif" font-size="14" lengthAdjust="spacing" textLength="313" x="28.3333" y="251.8613">timestamp: TIMESTAMP WITHOUT TIME ZONE(6)</text><path d="M20.4167,259.7135 C18.8067,259.7135 17.5,261.0202 17.5,262.6302 C17.5,262.8169 17.5,263.0035 17.535,263.1785 L14,266.7135 L14,269.0469 L17.5,269.0469 L17.5,266.7135 L19.8333,266.7135 L19.8333,265.5469 L19.8683,265.5119 C20.0433,265.5469 20.23,265.5469 20.4167,265.5469 C22.0267,265.5469 23.3333,264.2402 23.3333,262.6302 C23.3333,261.0202 22.0267,259.7135 20.4167,259.7135 M21,260.8802 C21.6417,260.8802 22.1667,261.4052 22.1667,262.0469 C22.1667,262.6885 21.6417,263.2135 21,263.2135 C20.3583,263.2135 19.8333,262.6885 19.8333,262.0469 C19.8333,261.4052 20.3583,260.8802 21,260.8802 " fill="#AAAAAA" style="stroke:;stroke-width:0.0;stroke-dasharray:;"/><text fill="#000000" font-family="sans-serif" font-size="14" lengthAdjust="spacing" textLength="151" x="28.3333" y="269.4707">assetId: INTEGER «FK»</text></g><!--MD5=[7b37d93eae255bbd1e1fcc8f620147a3]
class volume_entry--><g id="elem_volume_entry"><rect codeLine="91" fill="#FFFFFF" height="123.6563" id="volume_entry" rx="2.5" ry="2.5" style="stroke:#2E8B57;stroke-width:0.5;" width="340.3333" x="7" y="311.5"/><text fill="#000000" font-family="sans-serif" font-size="14" font-weight="bold" lengthAdjust="spacing" textLength="88" x="133.1667" y="331.0332">VolumeEntry</text><line style="stroke:#2E8B57;stroke-width:0.5;" x1="8" x2="346.3333" y1="339.1094" y2="339.1094"/><path d="M20.4167,347.8854 C18.8067,347.8854 17.5,349.1921 17.5,350.8021 C17.5,350.9888 17.5,351.1754 17.535,351.3504 L14,354.8854 L14,357.2188 L17.5,357.2188 L17.5,354.8854 L19.8333,354.8854 L19.8333,353.7188 L19.8683,353.6838 C20.0433,353.7188 20.23,353.7188 20.4167,353.7188 C22.0267,353.7188 23.3333,352.4121 23.3333,350.8021 C23.3333,349.1921 22.0267,347.8854 20.4167,347.8854 M21,349.0521 C21.6417,349.0521 22.1667,349.5771 22.1667,350.2188 C22.1667,350.8604 21.6417,351.3854 21,351.3854 C20.3583,351.3854 19.8333,350.8604 19.8333,350.2188 C19.8333,349.5771 20.3583,349.0521 21,349.0521 " fill="#B8860B" style="stroke:;stroke-width:0.0;stroke-dasharray:;"/><text fill="#000000" font-family="sans-serif" font-size="14" font-weight="bold" lengthAdjust="spacing" textLength="13" x="28.3333" y="357.6426">id</text><text fill="#000000" font-family="sans-serif" font-size="14" lengthAdjust="spacing" textLength="68" x="41.3333" y="357.6426">: INTEGER</text><path d="M17.5,365.4948 C15.5633,365.4948 14,367.0581 14,368.9948 C14,370.9315 15.5633,372.4948 17.5,372.4948 C19.4367,372.4948 21,370.9315 21,368.9948 C21,367.0581 19.4367,365.4948 17.5,365.4948 " fill="#EFEFEF" style="stroke:;stroke-width:0.0;stroke-dasharray:;"/><text fill="#000000" font-family="sans-serif" font-size="14" lengthAdjust="spacing" textLength="80" x="28.3333" y="375.252">volume: float</text><path d="M17.5,383.1042 C15.5633,383.1042 14,384.6675 14,386.6042 C14,388.5408 15.5633,390.1042 17.5,390.1042 C19.4367,390.1042 21,388.5408 21,386.6042 C21,384.6675 19.4367,383.1042 17.5,383.1042 " fill="#EFEFEF" style="stroke:;stroke-width:0.0;stroke-dasharray:;"/><text fill="#000000" font-family="sans-serif" font-size="14" lengthAdjust="spacing" textLength="130" x="28.3333" y="392.8613">timeframe: INTEGER</text><path d="M17.5,400.7135 C15.5633,400.7135 14,402.2769 14,404.2135 C14,406.1502 15.5633,407.7135 17.5,407.7135 C19.4367,407.7135 21,406.1502 21,404.2135 C21,402.2769 19.4367,400.7135 17.5,400.7135 " fill="#EFEFEF" style="stroke:;stroke-width:0.0;stroke-dasharray:;"/><text fill="#000000" font-family="sans-serif" font-size="14" lengthAdjust="spacing" textLength="313" x="28.3333" y="410.4707">timestamp: TIMESTAMP WITHOUT TIME ZONE(6)</text><path d="M20.4167,418.3229 C18.8067,418.3229 17.5,419.6296 17.5,421.2396 C17.5,421.4263 17.5,421.6129 17.535,421.7879 L14,425.3229 L14,427.6563 L17.5,427.6563 L17.5,425.3229 L19.8333,425.3229 L19.8333,424.1563 L19.8683,424.1213 C20.0433,424.1563 20.23,424.1563 20.4167,424.1563 C22.0267,424.1563 23.3333,422.8496 23.3333,421.2396 C23.3333,419.6296 22.0267,418.3229 20.4167,418.3229 M21,419.4896 C21.6417,419.4896 22.1667,420.0146 22.1667,420.6563 C22.1667,421.2979 21.6417,421.8229 21,421.8229 C20.3583,421.8229 19.8333,421.2979 19.8333,420.6563 C19.8333,420.0146 20.3583,419.4896 21,419.4896 " fill="#AAAAAA" style="stroke:;stroke-width:0.0;stroke-dasharray:;"/><text fill="#000000" font-family="sans-serif" font-size="14" lengthAdjust="spacing" textLength="151" x="28.3333" y="428.0801">assetId: INTEGER «FK»</text></g><!--MD5=[cd2c95ca7df4508150e1eb3d3f0c10e6]
link price_source to price_entries--><g id="link_price_source_price_entries"><path codeLine="99" d="M1048.54,298.5 C1048.54,298.5 1131.68,298.5 1131.68,298.5 " fill="none" id="price_source-price_entries" style="stroke:#00008B;stroke-width:1.0;"/><line style="stroke:#00008B;stroke-width:1.0;" x1="1131.68" x2="1139.68" y1="298.5" y2="292.5"/><line style="stroke:#00008B;stroke-width:1.0;" x1="1131.68" x2="1139.68" y1="298.5" y2="304.5"/><line style="stroke:#00008B;stroke-width:1.0;" x1="1131.68" x2="1139.68" y1="298.5" y2="298.5"/><ellipse cx="1125.68" cy="298.5" fill="none" rx="4" ry="4" style="stroke:#00008B;stroke-width:1.0;"/><line style="stroke:#00008B;stroke-width:1.0;" x1="1044.54" x2="1044.54" y1="302.5" y2="294.5"/><line style="stroke:#00008B;stroke-width:1.0;" x1="1047.54" x2="1047.54" y1="302.5" y2="294.5"/><line style="stroke:#00008B;stroke-width:1.0;" x1="1048.54" x2="1040.54" y1="298.5" y2="298.5"/><text fill="#000000" font-family="sans-serif" font-size="13" lengthAdjust="spacing" textLength="69" x="1049.0413" y="312.4143">priceSource</text></g><!--MD5=[44af31df9b161a670d0d370bc4e70f69]
link asset to price_source--><g id="link_asset_price_source"><path codeLine="100" d="M682,263.25 C682,263.25 771.42,263.25 771.42,263.25 " fill="none" id="asset-price_source" style="stroke:#00008B;stroke-width:1.0;"/><line style="stroke:#00008B;stroke-width:1.0;" x1="771.42" x2="779.42" y1="263.25" y2="257.25"/><line style="stroke:#00008B;stroke-width:1.0;" x1="771.42" x2="779.42" y1="263.25" y2="269.25"/><line style="stroke:#00008B;stroke-width:1.0;" x1="771.42" x2="779.42" y1="263.25" y2="263.25"/><line style="stroke:#00008B;stroke-width:1.0;" x1="769.42" x2="769.42" y1="259.25" y2="267.25"/><line style="stroke:#00008B;stroke-width:1.0;" x1="678" x2="678" y1="267.25" y2="259.25"/><line style="stroke:#00008B;stroke-width:1.0;" x1="681" x2="681" y1="267.25" y2="259.25"/><line style="stroke:#00008B;stroke-width:1.0;" x1="682" x2="674" y1="263.25" y2="263.25"/><text fill="#000000" font-family="sans-serif" font-size="13" lengthAdjust="spacing" textLength="32" x="682.4599" y="275.1722">asset</text></g><!--MD5=[b89aacba1807b2972a8cacb60b27a127]
link asset to slippage_entry--><g id="link_asset_slippage_entry"><path codeLine="101" d="M682.16,298.5 C682.16,298.5 767,298.5 767,298.5 C767,298.5 767,422.79 767,422.79 " fill="none" id="asset-slippage_entry" style="stroke:#00008B;stroke-width:1.0;"/><line style="stroke:#00008B;stroke-width:1.0;" x1="767" x2="773" y1="422.79" y2="430.79"/><line style="stroke:#00008B;stroke-width:1.0;" x1="767" x2="761" y1="422.79" y2="430.79"/><line style="stroke:#00008B;stroke-width:1.0;" x1="767" x2="767" y1="422.79" y2="430.79"/><line style="stroke:#00008B;stroke-width:1.0;" x1="771" x2="763" y1="420.79" y2="420.79"/><line style="stroke:#00008B;stroke-width:1.0;" x1="678.16" x2="678.16" y1="302.5" y2="294.5"/><line style="stroke:#00008B;stroke-width:1.0;" x1="681.16" x2="681.16" y1="302.5" y2="294.5"/><line style="stroke:#00008B;stroke-width:1.0;" x1="682.16" x2="674.16" y1="298.5" y2="298.5"/><text fill="#000000" font-family="sans-serif" font-size="13" lengthAdjust="spacing" textLength="59" x="690.1938" y="420.1726">fromAsset</text></g><!--MD5=[b89aacba1807b2972a8cacb60b27a127]
link asset to slippage_entry--><g id="link_asset_slippage_entry"><path codeLine="102" d="M682.12,333.75 C682.12,333.75 754,333.75 754,333.75 C754,333.75 754,422.85 754,422.85 " fill="none" id="asset-slippage_entry-1" style="stroke:#00008B;stroke-width:1.0;"/><line style="stroke:#00008B;stroke-width:1.0;" x1="754" x2="760" y1="422.85" y2="430.85"/><line style="stroke:#00008B;stroke-width:1.0;" x1="754" x2="748" y1="422.85" y2="430.85"/><line style="stroke:#00008B;stroke-width:1.0;" x1="754" x2="754" y1="422.85" y2="430.85"/><line style="stroke:#00008B;stroke-width:1.0;" x1="758" x2="750" y1="420.85" y2="420.85"/><line style="stroke:#00008B;stroke-width:1.0;" x1="678.12" x2="678.12" y1="337.75" y2="329.75"/><line style="stroke:#00008B;stroke-width:1.0;" x1="681.12" x2="681.12" y1="337.75" y2="329.75"/><line style="stroke:#00008B;stroke-width:1.0;" x1="682.12" x2="674.12" y1="333.75" y2="333.75"/><text fill="#000000" font-family="sans-serif" font-size="13" lengthAdjust="spacing" textLength="45" x="740.2156" y="420.2388">toAsset</text></g><!--MD5=[d3eb8ef2470c075f8ebcff224264b5ea]
link account to market--><g id="link_account_market"><path codeLine="103" d="M688.23,86.5 C688.23,86.5 771.37,86.5 771.37,86.5 " fill="none" id="account-market" style="stroke:#00008B;stroke-width:1.0;"/><line style="stroke:#00008B;stroke-width:1.0;" x1="771.37" x2="779.37" y1="86.5" y2="80.5"/><line style="stroke:#00008B;stroke-width:1.0;" x1="771.37" x2="779.37" y1="86.5" y2="92.5"/><line style="stroke:#00008B;stroke-width:1.0;" x1="771.37" x2="779.37" y1="86.5" y2="86.5"/><ellipse cx="765.37" cy="86.5" fill="none" rx="4" ry="4" style="stroke:#00008B;stroke-width:1.0;"/><line style="stroke:#00008B;stroke-width:1.0;" x1="684.23" x2="684.23" y1="90.5" y2="82.5"/><line style="stroke:#00008B;stroke-width:1.0;" x1="687.23" x2="687.23" y1="90.5" y2="82.5"/><line style="stroke:#00008B;stroke-width:1.0;" x1="688.23" x2="680.23" y1="86.5" y2="86.5"/><text fill="#000000" font-family="sans-serif" font-size="13" lengthAdjust="spacing" textLength="40" x="688.3028" y="100.4098">market</text></g><!--MD5=[674130ddafa71fe8bdc7eacee7b7e2b5]
link asset to market--><g id="link_asset_market"><path codeLine="104" d="M500,219.63 C500,219.63 500,160 500,160 C500,160 771.43,160 771.43,160 " fill="none" id="asset-market" style="stroke:#00008B;stroke-width:1.0;"/><line style="stroke:#00008B;stroke-width:1.0;" x1="771.43" x2="779.43" y1="160" y2="154"/><line style="stroke:#00008B;stroke-width:1.0;" x1="771.43" x2="779.43" y1="160" y2="166"/><line style="stroke:#00008B;stroke-width:1.0;" x1="771.43" x2="779.43" y1="160" y2="160"/><line style="stroke:#00008B;stroke-width:1.0;" x1="769.43" x2="769.43" y1="156" y2="164"/><line style="stroke:#00008B;stroke-width:1.0;" x1="504" x2="496" y1="223.63" y2="223.63"/><line style="stroke:#00008B;stroke-width:1.0;" x1="504" x2="496" y1="220.63" y2="220.63"/><line style="stroke:#00008B;stroke-width:1.0;" x1="500" x2="500" y1="219.63" y2="227.63"/><text fill="#000000" font-family="sans-serif" font-size="13" lengthAdjust="spacing" textLength="86" x="685.5576" y="160.4739">collateralAsset</text></g><!--MD5=[674130ddafa71fe8bdc7eacee7b7e2b5]
link asset to market--><g id="link_asset_market"><path codeLine="105" d="M587,219.97 C587,219.97 587,163 587,163 C587,163 771.09,163 771.09,163 " fill="none" id="asset-market-1" style="stroke:#00008B;stroke-width:1.0;"/><line style="stroke:#00008B;stroke-width:1.0;" x1="771.09" x2="779.09" y1="163" y2="157"/><line style="stroke:#00008B;stroke-width:1.0;" x1="771.09" x2="779.09" y1="163" y2="169"/><line style="stroke:#00008B;stroke-width:1.0;" x1="771.09" x2="779.09" y1="163" y2="163"/><line style="stroke:#00008B;stroke-width:1.0;" x1="769.09" x2="769.09" y1="159" y2="167"/><line style="stroke:#00008B;stroke-width:1.0;" x1="591" x2="583" y1="223.97" y2="223.97"/><line style="stroke:#00008B;stroke-width:1.0;" x1="591" x2="583" y1="220.97" y2="220.97"/><line style="stroke:#00008B;stroke-width:1.0;" x1="587" x2="587" y1="219.97" y2="227.97"/><text fill="#000000" font-family="sans-serif" font-size="13" lengthAdjust="spacing" textLength="59" x="712.3121" y="180.5996">debtAsset</text></g><!--MD5=[26d05cc5fe225189226a04831471db84]
link market_cap_entry to asset--><g id="link_market_cap_entry_asset"><path codeLine="106" d="M355.11,252.25 C355.11,252.25 404.81,252.25 404.81,252.25 " fill="none" id="market_cap_entry-asset" style="stroke:#2E8B57;stroke-width:1.0;"/><line style="stroke:#2E8B57;stroke-width:1.0;" x1="404.81" x2="412.81" y1="252.25" y2="246.25"/><line style="stroke:#2E8B57;stroke-width:1.0;" x1="404.81" x2="412.81" y1="252.25" y2="258.25"/><line style="stroke:#2E8B57;stroke-width:1.0;" x1="404.81" x2="412.81" y1="252.25" y2="252.25"/><ellipse cx="398.81" cy="252.25" fill="none" rx="4" ry="4" style="stroke:#2E8B57;stroke-width:1.0;"/><line style="stroke:#2E8B57;stroke-width:1.0;" x1="351.11" x2="351.11" y1="256.25" y2="248.25"/><line style="stroke:#2E8B57;stroke-width:1.0;" x1="354.11" x2="354.11" y1="256.25" y2="248.25"/><line style="stroke:#2E8B57;stroke-width:1.0;" x1="355.11" x2="347.11" y1="252.25" y2="252.25"/><text fill="#000000" font-family="sans-serif" font-size="13" lengthAdjust="spacing" textLength="32" x="355.5356" y="267.4173">asset</text></g><!--MD5=[2f31e425637b7d32481eaf12da7ec408]
link volume_entry to asset--><g id="link_volume_entry_asset"><path codeLine="107" d="M355.11,340.25 C355.11,340.25 404.81,340.25 404.81,340.25 " fill="none" id="volume_entry-asset" style="stroke:#2E8B57;stroke-width:1.0;"/><line style="stroke:#2E8B57;stroke-width:1.0;" x1="404.81" x2="412.81" y1="340.25" y2="334.25"/><line style="stroke:#2E8B57;stroke-width:1.0;" x1="404.81" x2="412.81" y1="340.25" y2="346.25"/><line style="stroke:#2E8B57;stroke-width:1.0;" x1="404.81" x2="412.81" y1="340.25" y2="340.25"/><ellipse cx="398.81" cy="340.25" fill="none" rx="4" ry="4" style="stroke:#2E8B57;stroke-width:1.0;"/><line style="stroke:#2E8B57;stroke-width:1.0;" x1="351.11" x2="351.11" y1="344.25" y2="336.25"/><line style="stroke:#2E8B57;stroke-width:1.0;" x1="354.11" x2="354.11" y1="344.25" y2="336.25"/><line style="stroke:#2E8B57;stroke-width:1.0;" x1="355.11" x2="347.11" y1="340.25" y2="340.25"/><text fill="#000000" font-family="sans-serif" font-size="13" lengthAdjust="spacing" textLength="32" x="355.5356" y="352.6167">asset</text></g><!--MD5=[073a619f68835579d61e813fbd834af5]
@startuml

!define table(ename, dbname) entity "<b>ename</b>"

!define pkey(x) {field} <b><color:DarkGoldenRod><&key></color> x</b>
!define fkey(x) {field} <color:#AAAAAA><&key></color> x
!define column(x) {field} <color:#EFEFEF><&media-record></color> x

hide stereotypes
hide methods
hide circle

left to right direction

skinparam roundcorner 5
skinparam linetype ortho
skinparam shadowing false
skinparam handwritten false

skinparam class {
    BackgroundColor white
    BorderColor darkblue
    ArrowColor darkblue
    BorderColor<<new>> seagreen
    ArrowColor<<new>> seagreen
}

table( PriceEntry, price_entries ) as price_entries {
  pkey( id ): INTEGER 
  column( at ): TIMESTAMP WITHOUT TIME ZONE(6) 
  column( use_value ): BIGINT 
  column( value ): CHARACTER VARYING(30) 
  fkey( priceSourceIdId ): INTEGER <<FK>>
}

table( PriceSource, price_source ) as price_source {
  pkey( id ): INTEGER 
  column( address ): CHARACTER VARYING(42) 
  column( chainId ): INTEGER 
  column( denominatorId ): INTEGER 
  column( priority ): INTEGER 
  column( enabled ): BOOLEAN 
  column( label ): CHARACTER VARYING 
  column( type ): CHARACTER VARYING 
  fkey( assetId ): INTEGER <<FK>>
}

table( Asset, asset ) as asset {
  pkey( id ): INTEGER 
  column( address ): CHARACTER VARYING(42) 
  column( chainId ): INTEGER 
  column( decimals ): SMALLINT 
  column( symbol ): CHARACTER VARYING 
  column( name ): CHARACTER VARYING 
}

table( SlippageEntry, slippage_entry ) as slippage_entry {
  pkey( id ): INTEGER 
  column( timestamp ): TIMESTAMP WITHOUT TIME ZONE(6) 
  fkey( fromAssetId ): INTEGER <<FK>>
  fkey( toAssetId ): INTEGER <<FK>>
  column( tradeSize ): NUMERIC(18, 6) 
  column( slippage ): NUMERIC(18, 6) 
}

table( Account, account ) as account {
  pkey( id ): INTEGER 
  column( nftId ): INTEGER 
  column( owner ): CHARACTER VARYING(42) 
  column( collateralAmount ): DOUBLE PRECISION 
  column( debtAmount ): DOUBLE PRECISION 
  column( marketId ): INTEGER 
}

table( Market, market ) as market {
  pkey( id ): INTEGER 
  column( address ): CHARACTER VARYING(42) 
  column( chainId ): INTEGER 
  column( liquidationThreshold ): INTEGER 
  fkey( collateralAssetId ): INTEGER <<FK>>
  fkey( debtAssetId ): INTEGER <<FK>>
  fkey( ownerId ): INTEGER <<FK>>
}

table(MarketCapEntry, market_cap_entry) as market_cap_entry <<new>> {
  pkey(id): INTEGER
  column(marketCap): float
  column(timestamp): TIMESTAMP WITHOUT TIME ZONE(6)
  fkey(assetId): INTEGER <<FK>>
}

table(VolumeEntry, volume_entry) as volume_entry <<new>> {
  pkey(id): INTEGER
  column(volume): float
  column(timeframe): INTEGER
  column(timestamp): TIMESTAMP WITHOUT TIME ZONE(6)
  fkey(assetId): INTEGER <<FK>>
}

"price_source" ||- -o{ "priceSource" "price_entries"
"asset" ||- -|{ "asset" "price_source"
"asset" ||- -|{ "fromAsset" "slippage_entry"
"asset" ||- -|{ "toAsset" "slippage_entry"
"account" ||- -o{ "market" "market"
"asset" ||- -|{ "collateralAsset" "market"
"asset" ||- -|{ "debtAsset" "market"
"market_cap_entry"  ||-[#seagreen]-o{ "asset" "asset" 
"volume_entry" ||-[#seagreen]-o{ "asset" "asset"

@enduml

@startuml



hide stereotypes
hide methods
hide circle

left to right direction

skinparam roundcorner 5
skinparam linetype ortho
skinparam shadowing false
skinparam handwritten false

skinparam class {
    BackgroundColor white
    BorderColor darkblue
    ArrowColor darkblue
    BorderColor<<new>> seagreen
    ArrowColor<<new>> seagreen
}

entity "<b>PriceEntry</b>" as price_entries {
  {field} <b><color:DarkGoldenRod><&key></color> id</b>: INTEGER 
  {field} <color:#EFEFEF><&media-record></color> at: TIMESTAMP WITHOUT TIME ZONE(6) 
  {field} <color:#EFEFEF><&media-record></color> use_value: BIGINT 
  {field} <color:#EFEFEF><&media-record></color> value: CHARACTER VARYING(30) 
  {field} <color:#AAAAAA><&key></color> priceSourceIdId: INTEGER <<FK>>
}

entity "<b>PriceSource</b>" as price_source {
  {field} <b><color:DarkGoldenRod><&key></color> id</b>: INTEGER 
  {field} <color:#EFEFEF><&media-record></color> address: CHARACTER VARYING(42) 
  {field} <color:#EFEFEF><&media-record></color> chainId: INTEGER 
  {field} <color:#EFEFEF><&media-record></color> denominatorId: INTEGER 
  {field} <color:#EFEFEF><&media-record></color> priority: INTEGER 
  {field} <color:#EFEFEF><&media-record></color> enabled: BOOLEAN 
  {field} <color:#EFEFEF><&media-record></color> label: CHARACTER VARYING 
  {field} <color:#EFEFEF><&media-record></color> type: CHARACTER VARYING 
  {field} <color:#AAAAAA><&key></color> assetId: INTEGER <<FK>>
}

entity "<b>Asset</b>" as asset {
  {field} <b><color:DarkGoldenRod><&key></color> id</b>: INTEGER 
  {field} <color:#EFEFEF><&media-record></color> address: CHARACTER VARYING(42) 
  {field} <color:#EFEFEF><&media-record></color> chainId: INTEGER 
  {field} <color:#EFEFEF><&media-record></color> decimals: SMALLINT 
  {field} <color:#EFEFEF><&media-record></color> symbol: CHARACTER VARYING 
  {field} <color:#EFEFEF><&media-record></color> name: CHARACTER VARYING 
}

entity "<b>SlippageEntry</b>" as slippage_entry {
  {field} <b><color:DarkGoldenRod><&key></color> id</b>: INTEGER 
  {field} <color:#EFEFEF><&media-record></color> timestamp: TIMESTAMP WITHOUT TIME ZONE(6) 
  {field} <color:#AAAAAA><&key></color> fromAssetId: INTEGER <<FK>>
  {field} <color:#AAAAAA><&key></color> toAssetId: INTEGER <<FK>>
  {field} <color:#EFEFEF><&media-record></color> tradeSize: NUMERIC(18, 6) 
  {field} <color:#EFEFEF><&media-record></color> slippage: NUMERIC(18, 6) 
}

entity "<b>Account</b>" as account {
  {field} <b><color:DarkGoldenRod><&key></color> id</b>: INTEGER 
  {field} <color:#EFEFEF><&media-record></color> nftId: INTEGER 
  {field} <color:#EFEFEF><&media-record></color> owner: CHARACTER VARYING(42) 
  {field} <color:#EFEFEF><&media-record></color> collateralAmount: DOUBLE PRECISION 
  {field} <color:#EFEFEF><&media-record></color> debtAmount: DOUBLE PRECISION 
  {field} <color:#EFEFEF><&media-record></color> marketId: INTEGER 
}

entity "<b>Market</b>" as market {
  {field} <b><color:DarkGoldenRod><&key></color> id</b>: INTEGER 
  {field} <color:#EFEFEF><&media-record></color> address: CHARACTER VARYING(42) 
  {field} <color:#EFEFEF><&media-record></color> chainId: INTEGER 
  {field} <color:#EFEFEF><&media-record></color> liquidationThreshold: INTEGER 
  {field} <color:#AAAAAA><&key></color> collateralAssetId: INTEGER <<FK>>
  {field} <color:#AAAAAA><&key></color> debtAssetId: INTEGER <<FK>>
  {field} <color:#AAAAAA><&key></color> ownerId: INTEGER <<FK>>
}

entity "<b>MarketCapEntry</b>" as market_cap_entry <<new>> {
  {field} <b><color:DarkGoldenRod><&key></color> id</b>: INTEGER
  {field} <color:#EFEFEF><&media-record></color> marketCap: float
  {field} <color:#EFEFEF><&media-record></color> timestamp: TIMESTAMP WITHOUT TIME ZONE(6)
  {field} <color:#AAAAAA><&key></color> assetId: INTEGER <<FK>>
}

entity "<b>VolumeEntry</b>" as volume_entry <<new>> {
  {field} <b><color:DarkGoldenRod><&key></color> id</b>: INTEGER
  {field} <color:#EFEFEF><&media-record></color> volume: float
  {field} <color:#EFEFEF><&media-record></color> timeframe: INTEGER
  {field} <color:#EFEFEF><&media-record></color> timestamp: TIMESTAMP WITHOUT TIME ZONE(6)
  {field} <color:#AAAAAA><&key></color> assetId: INTEGER <<FK>>
}

"price_source" ||- -o{ "priceSource" "price_entries"
"asset" ||- -|{ "asset" "price_source"
"asset" ||- -|{ "fromAsset" "slippage_entry"
"asset" ||- -|{ "toAsset" "slippage_entry"
"account" ||- -o{ "market" "market"
"asset" ||- -|{ "collateralAsset" "market"
"asset" ||- -|{ "debtAsset" "market"
"market_cap_entry"  ||-[#seagreen]-o{ "asset" "asset" 
"volume_entry" ||-[#seagreen]-o{ "asset" "asset"

@enduml

PlantUML version 1.2022.7(Mon Aug 22 13:01:30 EDT 2022)
(GPL source distribution)
Java Runtime: Java(TM) SE Runtime Environment
JVM: Java HotSpot(TM) 64-Bit Server VM
Default Encoding: Cp1252
Language: fr
Country: CA
--></g></svg>